<?xml version="1.0" encoding="iso-8859-1"?>
<!-- Generator: Adobe Illustrator 19.0.0, SVG Export Plug-In . SVG Version: 6.00 Build 0)  -->
<svg version="1.1" id="Capa_1" xmlns="http://www.w3.org/2000/svg" xmlns:xlink="http://www.w3.org/1999/xlink" x="0px" y="0px"
	 viewBox="0 0 512 512" style="enable-background:new 0 0 512 512;" xml:space="preserve">
<circle style="fill:#434D70;" cx="256" cy="256" r="256"/>
<path style="fill:#E5B832;" d="M363.096,221.008c0,0-2.437-73.11,81.64-82.859L319.229,82.098l-92.607,21.933l-91.389,81.641
	l40.211,68.237L363.096,221.008z"/>
<path style="fill:#F9CB3F;" d="M365.265,299.468l-58.211,50.395h36.864c12.936,0,23.74,9.853,24.931,22.737l9.958,108.074
	c-11.536,6.322-23.615,11.776-36.143,16.28l-61.44-58.995c-25.255-24.252-56.299-41.159-89.767-49.403
	c-15.37-3.783-31.253-5.736-47.334-5.736c0,0,0-36.143,0-79.987v-32.611c0-66.748,54.105-120.853,121.438-120.853h3.03
	c64.742,0,117.217,52.496,117.217,117.238l-0.021,41.294l16.311,82.484h-17.074L365.265,299.468z"/>
<g>
	<path style="fill:#E5B832;" d="M320.447,247.816c-113.321-9.139-176.324,55.016-176.324,55.016v-31.309
		C221.2,215.245,320.447,247.816,320.447,247.816z"/>
	<path style="fill:#E5B832;" d="M191.462,388.555c-15.371-3.784-31.255-5.74-47.339-5.74c0,0-14.982-36.135-14.982-79.983
		l14.982-32.607c0-66.75,54.102-120.852,121.437-120.852h3.034C200.491,149.372,170.972,279.016,191.462,388.555z"/>
</g>
<path style="fill:#F43380;" d="M469.838,181.781c-33.071-48.18-85.473-79.318-144.457-79.318
	c-100.133,0-181.258,89.694-181.258,200.37v79.977c0,13.542-1.578,26.091-4.054,37.428c-5.036,23.134-13.772,41.263-20.323,52.527
	c-1.473-0.92-2.936-1.87-4.389-2.821c9.822-61.628-36.321-165.366-44.157-246.69l34.649-6.384l17.199-3.166l-16.833-0.982
	l-35.913-2.09c-0.146-3.103-0.219-6.175-0.219-9.195c0-60.677,26.969-115.043,69.569-151.792l26.833,21.629l40.647,32.758
	l-30.292-41.19l-19.644-26.708c6.834-4.692,13.981-8.976,21.389-12.81l16.635,27.951l31.399,52.757l-19.143-58.608l-10.01-30.647
	c22.612-8.84,47.229-13.709,72.986-13.709c4.587,0,9.132,0.157,13.636,0.46c15.82,1.066,31.117,3.96,45.714,8.485l-0.115,0.763
	l-2.915,19.926l-7.544,51.399l38.066-61.273l0.01-0.01c0.084,0.042,0.167,0.084,0.251,0.125
	C418.983,50.636,462.952,110.759,469.838,181.781z"/>
<g>
	<path style="fill:#E02D77;" d="M140.069,420.237c-5.036,23.134-13.772,41.263-20.323,52.527c-1.473-0.92-2.936-1.87-4.389-2.821
		c9.822-61.628-36.321-165.366-44.157-246.69l34.649-6.384c-1.39,16.53-1.358,34.503-1.358,54.042
		C104.49,328.38,127.436,364.857,140.069,420.237z"/>
	<path style="fill:#E02D77;" d="M139.651,49.643l26.833,21.629c-30.166,26.948-53.582,70.76-60.27,141.448l-35.913-2.09
		c-0.146-3.103-0.219-6.175-0.219-9.195C70.081,140.758,97.05,86.392,139.651,49.643z"/>
	<path style="fill:#E02D77;" d="M178.584,23.322l16.635,27.951c-6.28,3.344-12.434,7.178-18.38,11.567l-19.644-26.708
		C164.028,31.441,171.175,27.157,178.584,23.322z"/>
	<path style="fill:#E02D77;" d="M329.801,10.01l-3.03,20.689c-31.013-1.829-77.093-3.26-119.296,14.723l-10.01-30.647
		c22.612-8.84,47.229-13.709,72.986-13.709C291.119,1.066,311.045,4.2,329.801,10.01z"/>
</g>
<g>
</g>
<g>
</g>
<g>
</g>
<g>
</g>
<g>
</g>
<g>
</g>
<g>
</g>
<g>
</g>
<g>
</g>
<g>
</g>
<g>
</g>
<g>
</g>
<g>
</g>
<g>
</g>
<g>
</g>
</svg>
